<svg xmlns="http://www.w3.org/2000/svg" xmlns:xlink="http://www.w3.org/1999/xlink" viewBox="0,0,256,256" width="64px" height="64px"><g fill="#ffffff" fill-rule="nonzero" stroke="none" stroke-width="1" stroke-linecap="butt" stroke-linejoin="miter" stroke-miterlimit="10" stroke-dasharray="" stroke-dashoffset="0" font-family="none" font-weight="none" font-size="none" text-anchor="none" style="mix-blend-mode: normal"><g transform="scale(2,2)"><path d="M67.8,116.9c-1.7,0 -3,-1.4 -3,-3v0c0,-0.9 0,-20.6 0,-37.3c0,-1.7 1.3,-3 3,-3h7.8l0.7,-7.2h-8.5c-1.7,0 -3,-1.3 -3,-3v-7.8c0,-4.5 3.3,-6.6 6.3,-6.6h5.4v-6.9h-8.5c-11.5,0 -12.7,8.9 -12.7,12.7v8.6c0,1.7 -1.3,3 -3,3h-6.9v7.2h6.9c1.7,0 3,1.3 3,3v36.1c0,1.7 -1.3,3 -3,3c-1.7,0 -3,-1.3 -3,-3v-33.1h-6.9c-1.7,0 -3,-1.3 -3,-3v-13.3c0,-1.7 1.3,-3 3,-3h6.9v-5.6c0,-8.6 4.9,-18.7 18.7,-18.7h11.5c1.7,0 3,1.3 3,3v13c0,1.7 -1.3,3 -3,3h-8.4c-0.1,0 -0.2,0 -0.2,0c0,0.1 -0.1,0.3 -0.1,0.6v4.8h8.9c0.8,0 1.7,0.4 2.2,1c0.6,0.6 0.8,1.5 0.8,2.3l-1.4,13.2c-0.2,1.5 -1.4,2.7 -3,2.7h-7.5c0,7.7 0,15.7 0,22.1v11.4c0,0.2 0,0.4 0,0.6c0,0.1 0,0.2 0,0.3v0c-0.3,2.4 -1.8,2.9 -3,2.9z"></path><path d="M67.8,116.9c-1.6,0 -2.9,-1.2 -3,-2.8c-0.1,-1.7 1.1,-3.1 2.8,-3.2c24.4,-1.8 43.4,-22.4 43.4,-46.9c0,-25.9 -21.1,-47 -47,-47c-25.9,0 -47,21.1 -47,47c0,21.8 14.8,40.6 35.9,45.7c1.6,0.4 2.6,2 2.2,3.6c-0.4,1.6 -2,2.6 -3.6,2.2c-23.8,-5.7 -40.5,-26.9 -40.5,-51.4c0,-29.2 23.8,-53 53,-53c29.2,0 53,23.8 53,53c0,27.6 -21.5,50.8 -49,52.8c-0.1,0 -0.1,0 -0.2,0z"></path></g></g></svg>